# xmcd
#
# Track frame offsets:
#	150
#	19158
#	33283
#	50020
#	67605
#	80972
#	92881
#	105554
#	118008
#	132072
#	145069
#	154994
#	167611
#	179348
#	193348
#
# Disc length: 2825 seconds
#
# Revision: 1
# Processed by: cddbd v1.5.2PL0 Copyright (c) Steve Scherf et al.
# Submitted via: audiograbber 1.83.01
#
DISCID=cc0b070f
DTITLE=stars vintage - love songs
DYEAR=2004
DGENRE=
TTITLE0=I can't stop loving you - Ray Charles
TTITLE1=Sunny - Cher
TTITLE2=It's a blue world - Mel Trome
TTITLE3=When a men loves a woman - Percy Sledge
TTITLE4=Stand by me - Ben E King
TTITLE5=Only you - The Platters
TTITLE6=Blue Velvet - Bobby Vinton
TTITLE7=Forever My Love - Dionne Warwick
TTITLE8=They Say It's wonderful - Frank Sinatra
TTITLE9=Yesterday - Tom Jones
TTITLE10=Love Letters in The Sand - Pat Boone
TTITLE11=Stardust - Doris Day
TTITLE12=Endless Love - Dionne Warwick and Tom Jones
TTITLE13=Moonlight Becomes You - Bing Crosby
TTITLE14=Love Theme - Barry White
EXTD=compilation
EXTT0=
EXTT1=
EXTT2=
EXTT3=
EXTT4=
EXTT5=
EXTT6=
EXTT7=
EXTT8=
EXTT9=
EXTT10=
EXTT11=
EXTT12=
EXTT13=
EXTT14=
PLAYORDER=
